<svg width="16" height="16" viewBox="0 0 16 16" fill="none" xmlns="http://www.w3.org/2000/svg">
<path d="M15.5 7.22737V14.45C15.5 14.7815 15.3683 15.0995 15.1339 15.3339C14.8995 15.5683 14.5815 15.7 14.25 15.7H11.125C10.7935 15.7 10.4755 15.5683 10.2411 15.3339C10.0067 15.0995 9.875 14.7815 9.875 14.45V11.325C9.875 11.1593 9.80915 11.0003 9.69194 10.8831C9.57473 10.7659 9.41576 10.7 9.25 10.7H6.75C6.58424 10.7 6.42527 10.7659 6.30806 10.8831C6.19085 11.0003 6.125 11.1593 6.125 11.325V14.45C6.125 14.7815 5.9933 15.0995 5.75888 15.3339C5.52446 15.5683 5.20652 15.7 4.875 15.7H1.75C1.41848 15.7 1.10054 15.5683 0.866116 15.3339C0.631696 15.0995 0.5 14.7815 0.5 14.45V7.22737C0.499974 7.05437 0.535859 6.88325 0.605384 6.72483C0.674909 6.56642 0.776561 6.42416 0.903906 6.30706L7.15391 0.410183L7.1625 0.401589C7.39261 0.192318 7.69248 0.076355 8.00352 0.076355C8.31455 0.076355 8.61442 0.192318 8.84453 0.401589C8.8472 0.404646 8.85007 0.407517 8.85312 0.410183L15.1031 6.30706C15.2292 6.42478 15.3295 6.56731 15.3978 6.7257C15.4661 6.88408 15.5009 7.05489 15.5 7.22737Z" fill="#FFFFFF"/>
</svg>
