<svg width="18" height="18" viewBox="0 0 18 18" fill="none" xmlns="http://www.w3.org/2000/svg">
<path d="M15.875 9.16873C15.8781 9.05623 15.8781 8.94373 15.875 8.83123L17.0406 7.37498C17.1017 7.29852 17.1441 7.20877 17.1641 7.11297C17.1842 7.01716 17.1815 6.91798 17.1563 6.82341C16.9648 6.10525 16.679 5.41564 16.3063 4.77263C16.2574 4.6885 16.1896 4.61694 16.1082 4.56364C16.0268 4.51034 15.9341 4.47677 15.8375 4.4656L13.9844 4.25935C13.9073 4.1781 13.8292 4.09998 13.75 4.02498L13.5313 2.16716C13.52 2.07045 13.4863 1.97771 13.4329 1.89633C13.3794 1.81494 13.3077 1.74717 13.2234 1.69841C12.5805 1.32595 11.8908 1.04064 11.1727 0.849975C11.0781 0.824709 10.9789 0.822009 10.8831 0.842093C10.7873 0.862176 10.6976 0.904481 10.6211 0.9656L9.16876 2.12497C9.05626 2.12497 8.94376 2.12497 8.83126 2.12497L7.37501 0.961693C7.29855 0.900575 7.2088 0.85827 7.113 0.838186C7.01719 0.818103 6.91801 0.820803 6.82344 0.846068C6.10528 1.0375 5.41567 1.32332 4.77266 1.69607C4.68853 1.74492 4.61697 1.81273 4.56367 1.89411C4.51037 1.97548 4.4768 2.06818 4.46563 2.16482L4.25938 4.02107C4.17813 4.09867 4.10001 4.1768 4.02501 4.25544L2.16719 4.46872C2.07048 4.47998 1.97774 4.51367 1.89636 4.56711C1.81497 4.62055 1.7472 4.69227 1.69844 4.77654C1.32606 5.41963 1.0405 6.10923 0.849224 6.82732C0.824065 6.92195 0.821492 7.02116 0.841712 7.11697C0.861931 7.21277 0.904378 7.30249 0.96563 7.37888L2.12501 8.83123C2.12501 8.94373 2.12501 9.05623 2.12501 9.16873L0.961724 10.625C0.900605 10.7014 0.8583 10.7912 0.838217 10.887C0.818134 10.9828 0.820833 11.082 0.846099 11.1765C1.03753 11.8947 1.32335 12.5843 1.6961 13.2273C1.74495 13.3114 1.81276 13.383 1.89414 13.4363C1.97551 13.4896 2.06821 13.5232 2.16485 13.5344L4.01797 13.7406C4.09558 13.8219 4.1737 13.9 4.25235 13.975L4.46876 15.8328C4.48001 15.9295 4.5137 16.0222 4.56714 16.1036C4.62058 16.185 4.6923 16.2528 4.77657 16.3015C5.41967 16.6739 6.10926 16.9595 6.82735 17.1508C6.92198 17.1759 7.02119 17.1785 7.117 17.1583C7.21281 17.1381 7.30252 17.0956 7.37891 17.0344L8.83126 15.875C8.94376 15.8781 9.05626 15.8781 9.16876 15.875L10.625 17.0406C10.7015 17.1017 10.7912 17.144 10.887 17.1641C10.9828 17.1842 11.082 17.1815 11.1766 17.1562C11.8948 16.9651 12.5845 16.6793 13.2274 16.3062C13.3115 16.2574 13.383 16.1896 13.4363 16.1082C13.4896 16.0268 13.5232 15.9341 13.5344 15.8375L13.7406 13.9844C13.8219 13.9073 13.9 13.8291 13.975 13.75L15.8328 13.5312C15.9295 13.52 16.0223 13.4863 16.1037 13.4328C16.185 13.3794 16.2528 13.3077 16.3016 13.2234C16.674 12.5803 16.9595 11.8907 17.1508 11.1726C17.1759 11.078 17.1785 10.9788 17.1583 10.883C17.1381 10.7872 17.0956 10.6975 17.0344 10.6211L15.875 9.16873ZM9.00001 12.125C8.38194 12.125 7.77775 11.9417 7.26385 11.5983C6.74995 11.2549 6.34941 10.7669 6.11288 10.1959C5.87636 9.62484 5.81447 8.99651 5.93505 8.39032C6.05563 7.78413 6.35326 7.22731 6.7903 6.79027C7.22734 6.35323 7.78416 6.0556 8.39035 5.93502C8.99654 5.81444 9.62487 5.87633 10.1959 6.11285C10.7669 6.34938 11.255 6.74991 11.5983 7.26382C11.9417 7.77772 12.125 8.38191 12.125 8.99998C12.125 9.82878 11.7958 10.6236 11.2097 11.2097C10.6237 11.7957 9.82881 12.125 9.00001 12.125Z" fill="#CCFBEF"/>
</svg>
