<svg width="18" height="17" viewBox="0 0 18 17" fill="none" xmlns="http://www.w3.org/2000/svg">
<path d="M17 15.3242C17.0699 15.4171 17.1125 15.5276 17.123 15.6433C17.1336 15.759 17.1116 15.8754 17.0597 15.9793C17.0078 16.0833 16.9279 16.1707 16.829 16.2318C16.7301 16.2928 16.6162 16.3251 16.5 16.325H1.5C1.38393 16.325 1.27015 16.2927 1.17142 16.2317C1.07268 16.1706 0.992891 16.0833 0.940983 15.9795C0.889075 15.8757 0.867102 15.7595 0.877526 15.6439C0.887949 15.5283 0.930358 15.4179 1 15.325C1.55343 14.583 2.29142 13.9988 3.14063 13.6305C2.67514 13.2056 2.34898 12.65 2.20496 12.0364C2.06094 11.4229 2.10579 10.7802 2.33362 10.1926C2.56145 9.60498 2.96161 9.1 3.48159 8.74392C4.00157 8.38784 4.61705 8.1973 5.24727 8.1973C5.87748 8.1973 6.49297 8.38784 7.01294 8.74392C7.53292 9.1 7.93308 9.60498 8.16091 10.1926C8.38874 10.7802 8.43359 11.4229 8.28957 12.0364C8.14555 12.65 7.81939 13.2056 7.35391 13.6305C7.96658 13.8953 8.52333 14.2742 8.99453 14.7469C9.46573 14.2742 10.0225 13.8953 10.6352 13.6305C10.1697 13.2056 9.84351 12.65 9.69949 12.0364C9.55547 11.4229 9.60032 10.7802 9.82815 10.1926C10.056 9.60498 10.4561 9.1 10.9761 8.74392C11.4961 8.38784 12.1116 8.1973 12.7418 8.1973C13.372 8.1973 13.9875 8.38784 14.5075 8.74392C15.0274 9.1 15.4276 9.60498 15.6554 10.1926C15.8833 10.7802 15.9281 11.4229 15.7841 12.0364C15.6401 12.65 15.3139 13.2056 14.8484 13.6305C15.7016 13.9969 16.4435 14.5809 17 15.3242ZM1.125 8.07501C1.19066 8.12425 1.26538 8.16008 1.34489 8.18045C1.4244 8.20082 1.50714 8.20533 1.58839 8.19372C1.66964 8.18212 1.74781 8.15462 1.81843 8.1128C1.88906 8.07099 1.95075 8.01567 2 7.95001C2.37841 7.44546 2.86909 7.03595 3.4332 6.7539C3.9973 6.47185 4.61932 6.32501 5.25 6.32501C5.88068 6.32501 6.5027 6.47185 7.0668 6.7539C7.63091 7.03595 8.12159 7.44546 8.5 7.95001C8.55822 8.02763 8.63371 8.09063 8.72049 8.13402C8.80728 8.17742 8.90297 8.20001 9 8.20001C9.09703 8.20001 9.19272 8.17742 9.27951 8.13402C9.36629 8.09063 9.44178 8.02763 9.5 7.95001C9.87841 7.44546 10.3691 7.03595 10.9332 6.7539C11.4973 6.47185 12.1193 6.32501 12.75 6.32501C13.3807 6.32501 14.0027 6.47185 14.5668 6.7539C15.1309 7.03595 15.6216 7.44546 16 7.95001C16.0493 8.01567 16.111 8.07098 16.1817 8.11277C16.2524 8.15457 16.3306 8.18204 16.4119 8.19361C16.4932 8.20518 16.5759 8.20063 16.6555 8.18021C16.735 8.15979 16.8097 8.12391 16.8754 8.07462C16.9411 8.02532 16.9964 7.96357 17.0382 7.8929C17.08 7.82223 17.1074 7.74402 17.119 7.66273C17.1306 7.58144 17.126 7.49867 17.1056 7.41914C17.0852 7.33961 17.0493 7.26489 17 7.19923C16.4466 6.45745 15.7085 5.87351 14.8594 5.50548C15.3249 5.08063 15.651 4.52498 15.795 3.91144C15.9391 3.2979 15.8942 2.65516 15.6664 2.06757C15.4386 1.47998 15.0384 0.975003 14.5184 0.618922C13.9984 0.262842 13.3829 0.0722961 12.7527 0.0722961C12.1225 0.0722961 11.507 0.262842 10.9871 0.618922C10.4671 0.975003 10.0669 1.47998 9.83909 2.06757C9.61126 2.65516 9.56641 3.2979 9.71043 3.91144C9.85445 4.52498 10.1806 5.08063 10.6461 5.50548C10.0334 5.7703 9.47667 6.14916 9.00547 6.62188C8.53427 6.14916 7.97751 5.7703 7.36484 5.50548C7.83033 5.08063 8.15649 4.52498 8.30051 3.91144C8.44453 3.2979 8.39968 2.65516 8.17185 2.06757C7.94402 1.47998 7.54386 0.975003 7.02388 0.618922C6.5039 0.262842 5.88842 0.0722961 5.2582 0.0722961C4.62799 0.0722961 4.0125 0.262842 3.49253 0.618922C2.97255 0.975003 2.57239 1.47998 2.34456 2.06757C2.11673 2.65516 2.07188 3.2979 2.2159 3.91144C2.35992 4.52498 2.68608 5.08063 3.15156 5.50548C2.29838 5.87219 1.55645 6.45652 1 7.20001C0.950755 7.26567 0.914924 7.34038 0.894554 7.41989C0.874184 7.4994 0.869675 7.58214 0.881282 7.66339C0.892889 7.74465 0.920387 7.82282 0.962204 7.89344C1.00402 7.96406 1.05934 8.02576 1.125 8.07501Z" fill="#CCFBEF"/>
</svg>
